<?xml version="1.0" encoding="UTF-8"?>
<svg id="Layer_1" data-name="Layer 1" xmlns="http://www.w3.org/2000/svg" xmlns:xlink="http://www.w3.org/1999/xlink" viewBox="0 0 386.72 71.89">
  <defs>
    <style>
      .cls-1, .cls-2, .cls-3, .cls-4 {
        fill: none;
      }

      .cls-5 {
        font-family: Arial-BoldMT, Arial;
        font-weight: 700;
      }

      .cls-5, .cls-6, .cls-7 {
        font-size: 6px;
      }

      .cls-6 {
        font-family: DejaVuSans, DejaVuSans;
      }

      .cls-2 {
        stroke-linejoin: round;
      }

      .cls-2, .cls-3, .cls-4 {
        stroke: #000;
      }

      .cls-2, .cls-4 {
        stroke-width: .8px;
      }

      .cls-8 {
        clip-path: url(#clippath-17);
      }

      .cls-9 {
        clip-path: url(#clippath-19);
      }

      .cls-10 {
        clip-path: url(#clippath-11);
      }

      .cls-11 {
        clip-path: url(#clippath-16);
      }

      .cls-12 {
        clip-path: url(#clippath-18);
      }

      .cls-13 {
        clip-path: url(#clippath-10);
      }

      .cls-14 {
        clip-path: url(#clippath-15);
      }

      .cls-15 {
        clip-path: url(#clippath-13);
      }

      .cls-16 {
        clip-path: url(#clippath-14);
      }

      .cls-17 {
        clip-path: url(#clippath-12);
      }

      .cls-18 {
        clip-path: url(#clippath-20);
      }

      .cls-19 {
        clip-path: url(#clippath-21);
      }

      .cls-20 {
        clip-path: url(#clippath-22);
      }

      .cls-21 {
        clip-path: url(#clippath-23);
      }

      .cls-22 {
        clip-path: url(#clippath-1);
      }

      .cls-23 {
        clip-path: url(#clippath-3);
      }

      .cls-24 {
        clip-path: url(#clippath-4);
      }

      .cls-25 {
        clip-path: url(#clippath-2);
      }

      .cls-26 {
        clip-path: url(#clippath-7);
      }

      .cls-27 {
        clip-path: url(#clippath-6);
      }

      .cls-28 {
        clip-path: url(#clippath-9);
      }

      .cls-29 {
        clip-path: url(#clippath-8);
      }

      .cls-30 {
        clip-path: url(#clippath-5);
      }

      .cls-31 {
        fill: #e7e7e7;
      }

      .cls-32 {
        fill: #fff;
      }

      .cls-33 {
        font-family: DejaVuSans-Oblique, 'DejaVu Sans';
        font-size: 4.2px;
        font-style: oblique;
      }

      .cls-3 {
        stroke-width: .5px;
      }

      .cls-3, .cls-4 {
        stroke-miterlimit: 10;
      }

      .cls-34 {
        fill: #f9c784;
      }

      .cls-7 {
        font-family: ArialMT, Arial;
      }

      .cls-35 {
        fill: #aeb8fe;
      }

      .cls-4 {
        stroke-linecap: square;
      }

      .cls-36 {
        clip-path: url(#clippath);
      }
    </style>
    <clipPath id="clippath">
      <rect class="cls-1" x="15.61" y="3.06" width="76.59" height="60.59"/>
    </clipPath>
    <clipPath id="clippath-1">
      <rect class="cls-1" x="15.61" y="3.06" width="76.59" height="60.59"/>
    </clipPath>
    <clipPath id="clippath-2">
      <rect class="cls-1" x="15.61" y="3.06" width="76.59" height="60.59"/>
    </clipPath>
    <clipPath id="clippath-3">
      <rect class="cls-1" x="15.61" y="3.06" width="76.59" height="60.59"/>
    </clipPath>
    <clipPath id="clippath-4">
      <rect class="cls-1" x="15.61" y="3.06" width="76.59" height="60.59"/>
    </clipPath>
    <clipPath id="clippath-5">
      <rect class="cls-1" x="15.61" y="3.06" width="76.59" height="60.59"/>
    </clipPath>
    <clipPath id="clippath-6">
      <rect class="cls-1" x="113.65" y="3.06" width="76.59" height="60.59"/>
    </clipPath>
    <clipPath id="clippath-7">
      <rect class="cls-1" x="113.65" y="3.06" width="76.59" height="60.59"/>
    </clipPath>
    <clipPath id="clippath-8">
      <rect class="cls-1" x="113.65" y="3.06" width="76.59" height="60.59"/>
    </clipPath>
    <clipPath id="clippath-9">
      <rect class="cls-1" x="113.65" y="3.06" width="76.59" height="60.59"/>
    </clipPath>
    <clipPath id="clippath-10">
      <rect class="cls-1" x="113.65" y="3.06" width="76.59" height="60.59"/>
    </clipPath>
    <clipPath id="clippath-11">
      <rect class="cls-1" x="113.65" y="3.06" width="76.59" height="60.59"/>
    </clipPath>
    <clipPath id="clippath-12">
      <rect class="cls-1" x="211.69" y="3.06" width="76.59" height="60.59"/>
    </clipPath>
    <clipPath id="clippath-13">
      <rect class="cls-1" x="211.69" y="3.06" width="76.59" height="60.59"/>
    </clipPath>
    <clipPath id="clippath-14">
      <rect class="cls-1" x="211.69" y="3.06" width="76.59" height="60.59"/>
    </clipPath>
    <clipPath id="clippath-15">
      <rect class="cls-1" x="211.69" y="3.06" width="76.59" height="60.59"/>
    </clipPath>
    <clipPath id="clippath-16">
      <rect class="cls-1" x="211.69" y="3.06" width="76.59" height="60.59"/>
    </clipPath>
    <clipPath id="clippath-17">
      <rect class="cls-1" x="211.69" y="3.06" width="76.59" height="60.59"/>
    </clipPath>
    <clipPath id="clippath-18">
      <rect class="cls-1" x="309.73" y="3.06" width="76.59" height="60.59"/>
    </clipPath>
    <clipPath id="clippath-19">
      <rect class="cls-1" x="309.73" y="3.06" width="76.59" height="60.59"/>
    </clipPath>
    <clipPath id="clippath-20">
      <rect class="cls-1" x="309.73" y="3.06" width="76.59" height="60.59"/>
    </clipPath>
    <clipPath id="clippath-21">
      <rect class="cls-1" x="309.73" y="3.06" width="76.59" height="60.59"/>
    </clipPath>
    <clipPath id="clippath-22">
      <rect class="cls-1" x="309.73" y="3.06" width="76.59" height="60.59"/>
    </clipPath>
    <clipPath id="clippath-23">
      <rect class="cls-1" x="309.73" y="3.06" width="76.59" height="60.59"/>
    </clipPath>
  </defs>
  <rect class="cls-32" x=".76" width="385.56" height="71.65"/>
  <rect class="cls-32" x="15.61" y="3.06" width="76.59" height="60.59"/>
  <g class="cls-36">
    <rect class="cls-32" x="19.09" y="12.15" width="10.62" height="202.97"/>
    <rect class="cls-3" x="19.09" y="12.15" width="10.62" height="202.97"/>
  </g>
  <g class="cls-22">
    <rect class="cls-35" x="30.89" y="20.33" width="10.62" height="194.79"/>
    <rect class="cls-3" x="30.89" y="20.33" width="10.62" height="194.79"/>
  </g>
  <g class="cls-25">
    <rect class="cls-35" x="42.69" y="22.04" width="10.62" height="193.07"/>
    <rect class="cls-3" x="42.69" y="22.04" width="10.62" height="193.07"/>
  </g>
  <g class="cls-23">
    <rect class="cls-35" x="54.49" y="32.54" width="10.62" height="182.57"/>
    <rect class="cls-3" x="54.49" y="32.54" width="10.62" height="182.57"/>
  </g>
  <g class="cls-24">
    <rect class="cls-34" x="66.29" y="44.66" width="10.62" height="170.45"/>
    <rect class="cls-3" x="66.29" y="44.66" width="10.62" height="170.45"/>
  </g>
  <g class="cls-30">
    <rect class="cls-31" x="78.1" y="54.15" width="10.62" height="160.96"/>
    <rect class="cls-3" x="78.1" y="54.15" width="10.62" height="160.96"/>
  </g>
  <line class="cls-2" x1="24.4" y1="63.65" x2="24.4" y2="61.65"/>
  <text class="cls-7" transform="translate(20.73 69.94)"><tspan x="0" y="0">BL</tspan></text>
  <line class="cls-2" x1="36.2" y1="63.65" x2="36.2" y2="61.65"/>
  <text class="cls-7" transform="translate(31.7 69.26)"><tspan x="0" y="0">1</tspan></text>
  <text class="cls-6" transform="translate(35.04 69.26)"><tspan x="0" y="0">×</tspan></text>
  <line class="cls-2" x1="48" y1="63.65" x2="48" y2="61.65"/>
  <text class="cls-7" transform="translate(43.5 69.26)"><tspan x="0" y="0">2</tspan></text>
  <text class="cls-6" transform="translate(46.84 69.26)"><tspan x="0" y="0">×</tspan></text>
  <line class="cls-2" x1="59.8" y1="63.65" x2="59.8" y2="61.65"/>
  <text class="cls-7" transform="translate(55.3 69.24)"><tspan x="0" y="0">4</tspan></text>
  <text class="cls-6" transform="translate(58.64 69.24)"><tspan x="0" y="0">×</tspan></text>
  <line class="cls-2" x1="71.6" y1="63.65" x2="71.6" y2="61.65"/>
  <text class="cls-7" transform="translate(67.1 69.24)"><tspan x="0" y="0">4</tspan></text>
  <text class="cls-6" transform="translate(70.44 69.24)"><tspan x="0" y="0">×</tspan></text>
  <line class="cls-2" x1="83.41" y1="63.65" x2="83.41" y2="61.65"/>
  <text class="cls-7" transform="translate(78.91 69.77)"><tspan x="0" y="0">8</tspan></text>
  <text class="cls-6" transform="translate(82.24 69.77)"><tspan x="0" y="0">×</tspan></text>
  <line class="cls-2" x1="15.61" y1="53.55" x2="17.61" y2="53.55"/>
  <text class="cls-7" transform="translate(6.92 55.7)"><tspan x="0" y="0">16</tspan></text>
  <line class="cls-2" x1="15.61" y1="33.35" x2="17.61" y2="33.35"/>
  <text class="cls-7" transform="translate(6.92 35.5)"><tspan x="0" y="0">18</tspan></text>
  <line class="cls-2" x1="15.61" y1="13.16" x2="17.61" y2="13.16"/>
  <text class="cls-7" transform="translate(6.92 15.31)"><tspan x="0" y="0">20</tspan></text>
  <text class="cls-7" transform="translate(5.15 46.69) rotate(-90)"><tspan x="0" y="0">MAE (cm)</tspan></text>
  <line class="cls-4" x1="15.61" y1="63.65" x2="15.61" y2="3.06"/>
  <line class="cls-4" x1="15.61" y1="63.65" x2="92.2" y2="63.65"/>
  <rect class="cls-35" x="57.64" y="2.5" width="12" height="4.2"/>
  <rect class="cls-3" x="57.64" y="2.5" width="12" height="4.2"/>
  <text class="cls-7" transform="translate(74.44 6.7)"><tspan x="0" y="0">Sim</tspan></text>
  <rect class="cls-34" x="57.64" y="10.98" width="12" height="4.2"/>
  <rect class="cls-3" x="57.64" y="10.98" width="12" height="4.2"/>
  <text class="cls-7" transform="translate(74.44 15.18)"><tspan x="0" y="0">Real</tspan></text>
  <rect class="cls-31" x="57.64" y="19.47" width="12" height="4.2"/>
  <rect class="cls-3" x="57.64" y="19.47" width="12" height="4.2"/>
  <text class="cls-7" transform="translate(74.44 23.67)"><tspan x="0" y="0">Both</tspan></text>
  <rect class="cls-32" x="113.65" y="3.06" width="76.59" height="60.59"/>
  <g class="cls-27">
    <rect class="cls-32" x="117.13" y="7.72" width="10.62" height="146.8"/>
    <rect class="cls-3" x="117.13" y="7.72" width="10.62" height="146.8"/>
  </g>
  <g class="cls-26">
    <rect class="cls-35" x="128.93" y="17.63" width="10.62" height="136.9"/>
    <rect class="cls-3" x="128.93" y="17.63" width="10.62" height="136.9"/>
  </g>
  <g class="cls-29">
    <rect class="cls-35" x="140.73" y="20.17" width="10.62" height="134.35"/>
    <rect class="cls-3" x="140.73" y="20.17" width="10.62" height="134.35"/>
  </g>
  <g class="cls-28">
    <rect class="cls-35" x="152.53" y="28.57" width="10.62" height="125.96"/>
    <rect class="cls-3" x="152.53" y="28.57" width="10.62" height="125.96"/>
  </g>
  <g class="cls-13">
    <rect class="cls-34" x="164.33" y="37.29" width="10.62" height="117.24"/>
    <rect class="cls-3" x="164.33" y="37.29" width="10.62" height="117.24"/>
  </g>
  <g class="cls-10">
    <rect class="cls-31" x="176.14" y="48.04" width="10.62" height="106.48"/>
    <rect class="cls-3" x="176.14" y="48.04" width="10.62" height="106.48"/>
  </g>
  <line class="cls-2" x1="122.44" y1="63.65" x2="122.44" y2="61.65"/>
  <text class="cls-7" transform="translate(118.77 69.94)"><tspan x="0" y="0">BL</tspan></text>
  <line class="cls-2" x1="134.24" y1="63.65" x2="134.24" y2="61.65"/>
  <text class="cls-7" transform="translate(129.74 69.26)"><tspan x="0" y="0">1</tspan></text>
  <text class="cls-6" transform="translate(133.08 69.26)"><tspan x="0" y="0">×</tspan></text>
  <line class="cls-2" x1="146.04" y1="63.65" x2="146.04" y2="61.65"/>
  <text class="cls-7" transform="translate(141.54 69.26)"><tspan x="0" y="0">2</tspan></text>
  <text class="cls-6" transform="translate(144.88 69.26)"><tspan x="0" y="0">×</tspan></text>
  <line class="cls-2" x1="157.84" y1="63.65" x2="157.84" y2="61.65"/>
  <text class="cls-7" transform="translate(153.34 69.24)"><tspan x="0" y="0">4</tspan></text>
  <text class="cls-6" transform="translate(156.68 69.24)"><tspan x="0" y="0">×</tspan></text>
  <line class="cls-2" x1="169.65" y1="63.65" x2="169.65" y2="61.65"/>
  <text class="cls-7" transform="translate(165.15 69.24)"><tspan x="0" y="0">4</tspan></text>
  <text class="cls-6" transform="translate(168.48 69.24)"><tspan x="0" y="0">×</tspan></text>
  <line class="cls-2" x1="181.45" y1="63.65" x2="181.45" y2="61.65"/>
  <text class="cls-7" transform="translate(176.95 69.77)"><tspan x="0" y="0">8</tspan></text>
  <text class="cls-6" transform="translate(180.28 69.77)"><tspan x="0" y="0">×</tspan></text>
  <line class="cls-2" x1="113.65" y1="63.65" x2="115.65" y2="63.65"/>
  <text class="cls-7" transform="translate(104.96 65.79)"><tspan x="0" y="0">30</tspan></text>
  <line class="cls-2" x1="113.65" y1="48.5" x2="115.65" y2="48.5"/>
  <text class="cls-7" transform="translate(104.96 50.65)"><tspan x="0" y="0">35</tspan></text>
  <line class="cls-2" x1="113.65" y1="33.35" x2="115.65" y2="33.35"/>
  <text class="cls-7" transform="translate(104.96 35.5)"><tspan x="0" y="0">40</tspan></text>
  <line class="cls-2" x1="113.65" y1="18.21" x2="115.65" y2="18.21"/>
  <text class="cls-7" transform="translate(104.96 20.35)"><tspan x="0" y="0">45</tspan></text>
  <line class="cls-2" x1="113.65" y1="3.06" x2="115.65" y2="3.06"/>
  <text class="cls-7" transform="translate(104.96 5.21)"><tspan x="0" y="0">50</tspan></text>
  <text class="cls-7" transform="translate(101.94 49.85) rotate(-90)"><tspan x="0" y="0">Q</tspan></text>
  <text class="cls-7" transform="translate(101.94 45.18) rotate(-90)"><tspan x="0" y="0">-</tspan></text>
  <text class="cls-6" transform="translate(101.94 43.19) rotate(-90)"><tspan x="0" y="0">9</tspan></text>
  <text class="cls-6" transform="translate(101.94 39.37) rotate(-90)"><tspan x="0" y="0">0</tspan></text>
  <text class="cls-33" transform="translate(99.65 35.49) rotate(-90)"><tspan x="0" y="0">t</tspan></text>
  <text class="cls-33" transform="translate(99.65 33.85) rotate(-90)"><tspan x="0" y="0">h</tspan></text>
  <text class="cls-7" transform="translate(101.94 31.02) rotate(-90)"><tspan x="0" y="0"> </tspan></text>
  <text class="cls-7" transform="translate(101.94 29.35) rotate(-90)"><tspan x="0" y="0">(</tspan></text>
  <text class="cls-7" transform="translate(101.94 27.36) rotate(-90)"><tspan x="0" y="0">c</tspan></text>
  <text class="cls-7" transform="translate(101.94 24.36) rotate(-90)"><tspan x="0" y="0">m</tspan></text>
  <text class="cls-7" transform="translate(101.94 19.36) rotate(-90)"><tspan x="0" y="0">)</tspan></text>
  <line class="cls-4" x1="113.65" y1="63.65" x2="113.65" y2="3.06"/>
  <line class="cls-4" x1="113.65" y1="63.65" x2="190.24" y2="63.65"/>
  <rect class="cls-32" x="211.69" y="3.06" width="76.59" height="60.59"/>
  <g class="cls-17">
    <rect class="cls-32" x="215.17" y="44.26" width="10.62" height="544.48"/>
    <rect class="cls-3" x="215.17" y="44.26" width="10.62" height="544.48"/>
  </g>
  <g class="cls-15">
    <rect class="cls-35" x="226.97" y="30.12" width="10.62" height="558.61"/>
    <rect class="cls-3" x="226.97" y="30.12" width="10.62" height="558.61"/>
  </g>
  <g class="cls-16">
    <rect class="cls-35" x="238.77" y="29.52" width="10.62" height="559.22"/>
    <rect class="cls-3" x="238.77" y="29.52" width="10.62" height="559.22"/>
  </g>
  <g class="cls-14">
    <rect class="cls-35" x="250.57" y="13.76" width="10.62" height="574.97"/>
    <rect class="cls-3" x="250.57" y="13.76" width="10.62" height="574.97"/>
  </g>
  <g class="cls-11">
    <rect class="cls-34" x="262.37" y="18.21" width="10.62" height="570.53"/>
    <rect class="cls-3" x="262.37" y="18.21" width="10.62" height="570.53"/>
  </g>
  <g class="cls-8">
    <rect class="cls-31" x="274.18" y="9.12" width="10.62" height="579.62"/>
    <rect class="cls-3" x="274.18" y="9.12" width="10.62" height="579.62"/>
  </g>
  <line class="cls-2" x1="220.48" y1="63.65" x2="220.48" y2="61.65"/>
  <text class="cls-7" transform="translate(216.81 69.94)"><tspan x="0" y="0">BL</tspan></text>
  <line class="cls-2" x1="232.28" y1="63.65" x2="232.28" y2="61.65"/>
  <text class="cls-7" transform="translate(227.78 69.26)"><tspan x="0" y="0">1</tspan></text>
  <text class="cls-6" transform="translate(231.12 69.26)"><tspan x="0" y="0">×</tspan></text>
  <line class="cls-2" x1="244.08" y1="63.65" x2="244.08" y2="61.65"/>
  <text class="cls-7" transform="translate(239.58 69.26)"><tspan x="0" y="0">2</tspan></text>
  <text class="cls-6" transform="translate(242.92 69.26)"><tspan x="0" y="0">×</tspan></text>
  <line class="cls-2" x1="255.88" y1="63.65" x2="255.88" y2="61.65"/>
  <text class="cls-7" transform="translate(251.38 69.24)"><tspan x="0" y="0">4</tspan></text>
  <text class="cls-6" transform="translate(254.72 69.24)"><tspan x="0" y="0">×</tspan></text>
  <line class="cls-2" x1="267.69" y1="63.65" x2="267.69" y2="61.65"/>
  <text class="cls-7" transform="translate(263.19 69.24)"><tspan x="0" y="0">4</tspan></text>
  <text class="cls-6" transform="translate(266.52 69.24)"><tspan x="0" y="0">×</tspan></text>
  <line class="cls-2" x1="279.49" y1="63.65" x2="279.49" y2="61.65"/>
  <text class="cls-7" transform="translate(274.99 69.77)"><tspan x="0" y="0">8</tspan></text>
  <text class="cls-6" transform="translate(278.32 69.77)"><tspan x="0" y="0">×</tspan></text>
  <line class="cls-2" x1="211.69" y1="63.65" x2="213.69" y2="63.65"/>
  <text class="cls-7" transform="translate(203 65.79)"><tspan x="0" y="0">26</tspan></text>
  <line class="cls-2" x1="211.69" y1="43.45" x2="213.69" y2="43.45"/>
  <text class="cls-7" transform="translate(203 45.6)"><tspan x="0" y="0">27</tspan></text>
  <line class="cls-2" x1="211.69" y1="23.25" x2="213.69" y2="23.25"/>
  <text class="cls-7" transform="translate(203 25.4)"><tspan x="0" y="0">28</tspan></text>
  <line class="cls-2" x1="211.69" y1="3.06" x2="213.69" y2="3.06"/>
  <text class="cls-7" transform="translate(203 5.21)"><tspan x="0" y="0">29</tspan></text>
  <text class="cls-7" transform="translate(201.23 48.19) rotate(-90)"><tspan x="0" y="0">PSNR (dB)</tspan></text>
  <line class="cls-4" x1="211.69" y1="63.65" x2="211.69" y2="3.06"/>
  <line class="cls-4" x1="211.69" y1="63.65" x2="288.28" y2="63.65"/>
  <rect class="cls-32" x="309.73" y="3.06" width="76.59" height="60.59"/>
  <g class="cls-12">
    <rect class="cls-32" x="313.21" y="56.98" width="10.62" height="31.91"/>
    <rect class="cls-3" x="313.21" y="56.98" width="10.62" height="31.91"/>
  </g>
  <g class="cls-9">
    <rect class="cls-35" x="325.01" y="38.6" width="10.62" height="50.29"/>
    <rect class="cls-3" x="325.01" y="38.6" width="10.62" height="50.29"/>
  </g>
  <g class="cls-18">
    <rect class="cls-35" x="336.81" y="26.89" width="10.62" height="62"/>
    <rect class="cls-3" x="336.81" y="26.89" width="10.62" height="62"/>
  </g>
  <g class="cls-19">
    <rect class="cls-35" x="348.61" y="16.59" width="10.62" height="72.3"/>
    <rect class="cls-3" x="348.61" y="16.59" width="10.62" height="72.3"/>
  </g>
  <g class="cls-20">
    <rect class="cls-34" x="360.41" y="12.55" width="10.62" height="76.34"/>
    <rect class="cls-3" x="360.41" y="12.55" width="10.62" height="76.34"/>
  </g>
  <g class="cls-21">
    <rect class="cls-31" x="372.22" y="7.1" width="10.62" height="81.79"/>
    <rect class="cls-3" x="372.22" y="7.1" width="10.62" height="81.79"/>
  </g>
  <line class="cls-2" x1="318.52" y1="63.65" x2="318.52" y2="61.65"/>
  <text class="cls-7" transform="translate(314.85 69.94)"><tspan x="0" y="0">BL</tspan></text>
  <line class="cls-2" x1="330.32" y1="63.65" x2="330.32" y2="61.65"/>
  <text class="cls-7" transform="translate(325.3 69.94)"><tspan x="0" y="0">400</tspan></text>
  <line class="cls-2" x1="342.12" y1="63.65" x2="342.12" y2="61.65"/>
  <text class="cls-7" transform="translate(337.11 69.94)"><tspan x="0" y="0">900</tspan></text>
  <line class="cls-2" x1="353.92" y1="63.65" x2="353.92" y2="61.65"/>
  <text class="cls-7" transform="translate(348.24 69.94)"><tspan x="0" y="0">1.9k</tspan></text>
  <line class="cls-2" x1="365.73" y1="63.65" x2="365.73" y2="61.65"/>
  <text class="cls-7" transform="translate(360.05 69.94)"><tspan x="0" y="0">1.9k</tspan></text>
  <line class="cls-2" x1="377.53" y1="63.65" x2="377.53" y2="61.65"/>
  <text class="cls-7" transform="translate(371.85 69.94)"><tspan x="0" y="0">3.8k</tspan></text>
  <line class="cls-2" x1="309.73" y1="48.5" x2="311.73" y2="48.5"/>
  <text class="cls-7" transform="translate(299.37 50.65)"><tspan x="0" y="0">0.4</tspan></text>
  <line class="cls-2" x1="309.73" y1="28.3" x2="311.73" y2="28.3"/>
  <text class="cls-7" transform="translate(299.37 30.45)"><tspan x="0" y="0">0.6</tspan></text>
  <line class="cls-2" x1="309.73" y1="8.11" x2="311.73" y2="8.11"/>
  <text class="cls-7" transform="translate(299.37 10.26)"><tspan x="0" y="0">0.8</tspan></text>
  <text class="cls-7" transform="translate(294.67 45.7) rotate(-90)"><tspan x="0" y="0">Accuracy</tspan></text>
  <line class="cls-4" x1="309.73" y1="63.65" x2="309.73" y2="3.06"/>
  <line class="cls-4" x1="309.73" y1="63.65" x2="386.32" y2="63.65"/>
  <text class="cls-5" transform="translate(.76 66.37)"><tspan x="0" y="0">(a)</tspan></text>
  <text class="cls-5" transform="translate(287.86 66.37)"><tspan x="0" y="0">(b)</tspan></text>
</svg>